max v2;
#N vpatcher 132 278 496 503;
#P window setfont "Sans Serif" 9.;
#P window linecount 1;
#N vpatcher 10 59 610 459;
#P window setfont "Sans Serif" 9.;
#P window linecount 1;
#P message 241 110 29 196617 60.;
#P flonum 260 169 35 9 0 0 0 3 0 0 0 221 221 221 222 222 222 0 0 0;
#P newex 279 79 30 196617 t b f;
#P newex 91 169 33 196617 * 1.;
#P newex 241 131 38 196617 / 60.;
#P newex 279 52 67 196617 r _setTempo;
#P newex 148 110 28 196617 t b b;
#P newex 167 157 74 196617 s _pauseEvent;
#P message 167 134 14 196617 1;
#P outlet 116 244 15 0;
#P newex 4 104 28 196617 t b b;
#P message 22 126 39 196617 rewind;
#P message 4 167 27 196617 stop;
#P outlet 58 245 15 0;
#P message 58 219 28 196617 next;
#P newex 58 49 35 196617 sel -1;
#P newex 83 83 75 196617 split 1 100000;
#P inlet 58 22 15 0;
#P newex 58 191 32 196617 delay;
#P newex 58 143 32 196617 t b i;
#P comment 171 87 100 196617 0 stops Qlist;
#P fasten 5 0 10 0 63 85 9 85;
#P fasten 14 0 8 0 153 164 9 164;
#P connect 10 0 8 0;
#P connect 10 1 9 0;
#P connect 3 0 5 0;
#P fasten 4 0 1 0 88 115 63 115;
#P fasten 8 0 2 0 9 187 63 187;
#P connect 1 0 2 0;
#P connect 2 0 6 0;
#P connect 6 0 7 0;
#P fasten 9 0 7 0 27 238 63 238;
#P fasten 17 0 2 1 96 189 85 189;
#P connect 5 1 4 0;
#P fasten 1 1 17 0 85 166 96 166;
#P fasten 16 0 17 1 246 185 135 185 135 152 119 152;
#P fasten 8 0 11 0 9 213 121 213;
#P connect 4 1 14 0;
#P connect 14 1 12 0;
#P connect 12 0 13 0;
#P fasten 18 0 20 0 284 102 246 102;
#P connect 20 0 16 0;
#P connect 16 0 19 0;
#P fasten 18 1 16 1 304 115 274 115;
#P connect 15 0 18 0;
#P pop;
#P newobj 32 149 69 196617 p qController;
#P comment 191 25 47 196617 continue;
#P message 190 71 28 196617 next;
#P button 190 42 20 0;
#P comment 146 25 39 196617 pause;
#P comment 98 25 39 196617 reset;
#P message 147 71 14 196617 0;
#P button 147 42 20 0;
#P message 100 67 39 196617 rewind;
#P button 100 42 20 0;
#P newex 212 134 35 196617 print;
#P newex 212 109 35 196617 r note;
#P button 56 42 21 0;
#P message 56 84 65 196617 rewind \, next;
#N qlist;
#X append note 71 64 1 1875 \;;
#X append note 52 64 4 750 \;;
#X append 750  \;;
#X append note 54 64 4 750 \;;
#X append 750  \;;
#X append  \;;
#X append note 56 64 4 750 \;;
#X append 375  \;;
#X append note 73 64 1 187 \;;
#X append 187  \;;
#X append note 75 64 1 187 \;;
#X append 187  \;;
#X append note 76 64 1 187 \;;
#X append note 52 64 4 750 \;;
#X append 187  \;;
#X append note 78 64 1 187 \;;
#X append 187  \;;
#X append note 80 64 1 375 \;;
#X append 375  \;;
#X append note 78 64 1 375 \;;
#X append note 59 64 4 1125 \;;
#X append 375  \;;
#X append note 75 64 1 375 \;;
#X append 375  \;;
#X append note 71 64 1 750 \;;
#X append 375  \;;
#X append note 57 64 4 187 \;;
#X append 187  \;;
#X append note 56 64 4 187 \;;
#X append 187  \;;
#X append note 54 64 4 375 \;;
#X append 375  \;;
#X append note 52 64 4 375 \;;
#X append 375  \;;
#X append note 51 64 4 375 \;;
#X append 375  \;;
#X append note 49 64 4 375 \;;
#X append 375  \;;
#X append note 71 64 1 1687 \;;
#X append note 51 64 4 750 \;;
#X append 750  \;;
#X append note 47 64 4 750 \;;
#X append 750  \;;
#X append  \;;
#X append note 49 64 4 750 \;;
#X append 187  \;;
#X append note 73 64 1 187 \;;
#X append 187  \;;
#X append note 75 64 1 187 \;;
#X append 187  \;;
#X append note 76 64 1 187 \;;
#X append 187  \;;
#X append note 78 64 1 187 \;;
#X append note 51 64 4 750 \;;
#X append 187  \;;
#X append note 80 64 1 187 \;;
#X append 187  \;;
#X append note 81 64 1 375 \;;
#X append 375  \;;
#X append note 80 64 1 187 \;;
#X append note 52 64 4 1125 \;;
#X append 187  \;;
#X append note 78 64 1 187 \;;
#X append 187  \;;
#X append note 76 64 1 375 \;;
#X append 375  \;;
#X append note 76 64 1 750 \;;
#X append 375  \;;
#X append note 56 64 4 187 \;;
#X append 187  \;;
#X append note 54 64 4 187 \;;
#X append 187  \;;
#X append note 56 64 4 750 \;;
#X append 375  \;;
#X append note 74 64 1 750 \;;
#X append 375  \;;
#X append note 52 64 4 750 \;;
#X append 375  \;;
#X append note 73 64 1 187 \;;
#X append 187  \;;
#X append note 71 64 1 187 \;;
#X append 187  \;;
#X append note 73 64 1 375 \;;
#X append note 57 64 4 750 \;;
#X append 375  \;;
#X append note 78 64 1 375 \;;
#X append 375  \;;
#X append note 75 64 1 375 \;;
#X append note 56 64 4 750 \;;
#X append 375  \;;
#X append note 76 64 1 375 \;;
#X append 375  \;;
#X append note 69 64 1 375 \;;
#X append note 54 64 4 750 \;;
#X append 375  \;;
#X append note 68 64 1 187 \;;
#X append 187  \;;
#X append note 66 64 1 187 \;;
#X append 187  \;;
#X append note 68 64 1 375 \;;
#X append note 52 64 4 750 \;;
#X append 375  \;;
#X append note 76 64 1 375 \;;
#X append 375  \;;
#X append note 68 64 1 750 \;;
#X append note 59 64 4 1125 \;;
#X append 750  \;;
#X append note 66 64 1 750 \;;
#X append 375  \;;
#X append note 47 64 4 187 \;;
#X append 187  \;;
#X append note 49 64 4 187 \;;
#X append 187  \;;
#X append note 51 64 4 750 \;;
#X append 375  \;;
#X append note 71 64 1 375 \;;
#X append 375  \;;
#X append note 75 64 1 375 \;;
#X append note 47 64 4 750 \;;
#X append 375  \;;
#X append note 78 64 1 375 \;;
#X append 375  \;;
#X append note 81 64 1 187 \;;
#X append note 52 64 4 1125 \;;
#X append 187  \;;
#X append note 80 64 1 187 \;;
#X append 187  \;;
#X append note 78 64 1 375 \;;
#X append 375  \;;
#X append note 80 64 1 937 \;;
#X append 375  \;;
#X append note 40 64 4 187 \;;
#X append 187  \;;
#X append note 39 64 4 187 \;;
#X append 187  \;;
#X append  \;;
#X append note 40 64 4 750 \;;
#X append 187  \;;
#X append note 78 64 1 187 \;;
#X append 187  \;;
#X append note 76 64 1 187 \;;
#X append 187  \;;
#X append note 75 64 1 187 \;;
#X append 187  \;;
#X append note 73 64 1 375 \;;
#X append note 52 64 4 750 \;;
#X append 375  \;;
#X append note 75 64 1 187 \;;
#X append 187  \;;
#X append note 76 64 1 187 \;;
#X append 187  \;;
#X append note 71 64 1 750 \;;
#X append note 54 64 4 1125 \;;
#X append 750  \;;
#X append note 70 64 1 750 \;;
#X append 375  \;;
#X append note 42 64 4 187 \;;
#X append 187  \;;
#X append note 40 64 4 187 \;;
#X append 187  \;;
#X append note 42 64 4 750 \;;
#X append 375  \;;
#X append note 75 64 1 375 \;;
#X append 375  \;;
#X append note 78 64 1 375 \;;
#X append note 54 64 4 750 \;;
#X append 375  \;;
#X append note 82 64 1 375 \;;
#X append 375  \;;
#X append note 85 64 1 187 \;;
#X append note 56 64 4 1125 \;;
#X append 187  \;;
#X append note 83 64 1 187 \;;
#X append 187  \;;
#X append note 82 64 1 375 \;;
#X append 375  \;;
#X append note 83 64 1 937 \;;
#X append 375  \;;
#X append note 44 64 4 187 \;;
#X append 187  \;;
#X append note 42 64 4 187 \;;
#X append 187  \;;
#X append  \;;
#X append note 44 64 4 750 \;;
#X append 187  \;;
#X append note 82 64 1 187 \;;
#X append 187  \;;
#X append note 80 64 1 187 \;;
#X append 187  \;;
#X append note 78 64 1 187 \;;
#X append 187  \;;
#X append note 76 64 1 187 \;;
#X append note 56 64 4 750 \;;
#X append 187  \;;
#X append note 75 64 1 187 \;;
#X append 187  \;;
#X append note 76 64 1 375 \;;
#X append 375  \;;
#X append note 76 64 1 750 \;;
#X append note 58 64 4 1125 \;;
#X append 750  \;;
#X append note 66 64 1 937 \;;
#X append 375  \;;
#X append note 46 64 4 187 \;;
#X append 187  \;;
#X append note 44 64 4 187 \;;
#X append 187  \;;
#X append  \;;
#X append note 46 64 4 750 \;;
#X append 187  \;;
#X append note 70 64 1 187 \;;
#X append 187  \;;
#X append note 68 64 1 187 \;;
#X append 187  \;;
#X append note 66 64 1 187 \;;
#X append 187  \;;
#X append note 68 64 1 187 \;;
#X append note 42 64 4 750 \;;
#X append 187  \;;
#X append note 70 64 1 187 \;;
#X append 187  \;;
#X append note 71 64 1 187 \;;
#X append 187  \;;
#X append note 73 64 1 187 \;;
#X append 187  \;;
#X append note 75 64 1 187 \;;
#X append note 47 64 4 750 \;;
#X append 187  \;;
#X append note 71 64 1 187 \;;
#X append 187  \;;
#X append note 73 64 1 187 \;;
#X append 187  \;;
#X append note 75 64 1 187 \;;
#X append 187  \;;
#X append note 76 64 1 187 \;;
#X append note 56 64 4 750 \;;
#X append 187  \;;
#X append note 80 64 1 187 \;;
#X append 187  \;;
#X append note 78 64 1 187 \;;
#X append 187  \;;
#X append note 76 64 1 187 \;;
#X append 187  \;;
#X append note 83 64 1 750 \;;
#X append note 54 64 4 750 \;;
#X append 750  \;;
#X append note 82 64 1 562 \;;
#X append note 42 64 4 750 \;;
#X append 562  \;;
#X append note 83 64 1 187 \;;
#X append 187  \;;
#X append note 83 64 1 250 \;;
#X append note 44 64 4 750 \;;
#X append 249  \;;
#X append note 76 64 1 250 \;;
#X append 250  \;;
#X append note 75 64 1 250 \;;
#X append 249  \;;
#X append note 76 64 1 250 \;;
#X append note 56 64 4 750 \;;
#X append 249  \;;
#X append note 78 64 1 250 \;;
#X append 250  \;;
#X append note 80 64 1 250 \;;
#X append 249  \;;
#X append note 80 64 1 250 \;;
#X append 249  \;;
#X append note 78 64 1 250 \;;
#X append 250  \;;
#X append note 76 64 1 250 \;;
#X append 249  \;;
#X append note 76 64 1 250 \;;
#X append note 44 64 4 750 \;;
#X append 249  \;;
#X append note 75 64 1 250 \;;
#X append 250  \;;
#X append note 76 64 1 250 \;;
#X append 249  \;;
#X append note 85 64 1 250 \;;
#X append note 46 64 4 750 \;;
#X append 249  \;;
#X append note 76 64 1 250 \;;
#X append 250  \;;
#X append note 75 64 1 250 \;;
#X append 249  \;;
#X append note 76 64 1 250 \;;
#X append note 58 64 4 750 \;;
#X append 249  \;;
#X append note 78 64 1 250 \;;
#X append 250  \;;
#X append note 80 64 1 250 \;;
#X append 249  \;;
#X append note 80 64 1 250 \;;
#X append 249  \;;
#X append note 78 64 1 250 \;;
#X append 250  \;;
#X append note 76 64 1 250 \;;
#X append 249  \;;
#X append note 76 64 1 250 \;;
#X append note 46 64 4 750 \;;
#X append 249  \;;
#X append note 75 64 1 250 \;;
#X append 250  \;;
#X append note 76 64 1 250 \;;
#X append 249  \;;
#X append note 87 64 1 937 \;;
 \;;
#X append note 47 64 4 750 \;;
#X append 750  \;;
#X append  \;;
#X append note 59 64 4 750 \;;
#X append 187  \;;
#X append note 85 64 1 187 \;;
#X append 187  \;;
#X append note 83 64 1 187 \;;
#X append 187  \;;
#X append note 82 64 1 187 \;;
#X append 187  \;;
#X append note 80 64 1 1125 \;;
#X append note 52 64 4 750 \;;
#X append 750  \;;
#X append note 53 64 4 750 \;;
#X append 375  \;;
#X append note 82 64 1 187 \;;
#X append 187  \;;
#X append note 83 64 1 187 \;;
#X append 187  \;;
#X append note 77 64 1 375 \;;
#X append note 54 64 4 750 \;;
#X append 375  \;;
#X append note 78 64 1 187 \;;
#X append 187  \;;
#X append note 73 64 1 187 \;;
#X append 187  \;;
#X append note 75 64 1 187 \;;
#X append note 52 64 4 750 \;;
#X append 187  \;;
#X append note 70 64 1 187 \;;
#X append 187  \;;
#X append note 71 64 1 187 \;;
#X append 187  \;;
#X append note 76 64 1 187 \;;
#X append 187  \;;
#X append note 73 64 1 1125 \;;
#X append note 54 64 4 750 \;;
#X append 750  \;;
#X append note 42 64 4 750 \;;
#X append 375  \;;
#X append note 71 64 1 375 \;;
#X append 375  \;;
#X append note 71 64 1 1500 \;;
#X append note 47 64 4 1125 \;;
#P newobj 32 118 131 196617 qlist;
#P comment 54 25 31 196617 start;
#P fasten 15 0 1 0 37 176 23 176 23 112 37 112;
#P fasten 2 0 1 0 61 105 37 105;
#P fasten 7 0 1 0 105 105 37 105;
#P fasten 13 0 1 0 195 105 37 105;
#P fasten 9 0 15 0 152 141 37 141;
#P connect 1 0 15 0;
#P connect 3 0 2 0;
#P connect 6 0 7 0;
#P connect 8 0 9 0;
#P connect 12 0 13 0;
#P connect 4 0 5 0;
#P pop;
